# xmcd
#
# Track frame offsets:
#	150
#	18724
#	38038
#	61918
#	80447
#	108129
#	123062
#	145105
#	164223
#	185268
#	201173
#	222998
#	242531
#
# Disc length: 3480 seconds
# Revision: 1
# Processed by: cddbd v1.5.2PL0 Copyright (c) Steve Scherf et al.
# Submitted via: dBpowerAMP V12.0
#
DISCID=af0d960d
DTITLE=Val Starr and The Blues Rocket - Lighter Side Of The Blues
DYEAR=2020
DGENRE=Blues
TTITLE0=Say Goodbye To The Blues (Like You Mean It)
TTITLE1=Sactown Heat
TTITLE2=If She Can Get A Man (Anyone Can)
TTITLE3=Lighter Side Of The Blues
TTITLE4=All Or Nuthin' Man
TTITLE5=Can't Get Sad Tonight
TTITLE6=Lift A Finger
TTITLE7=Mister Bassman
TTITLE8=Movin' On
TTITLE9=24 Hour Blues
TTITLE10=Big Boss Man (#MeToo)
TTITLE11=Shame On You
TTITLE12=The Blues Doesn't Pick Or Choose
EXTD=
EXTT0=
EXTT1=
EXTT2=
EXTT3=
EXTT4=
EXTT5=
EXTT6=
EXTT7=
EXTT8=
EXTT9=
EXTT10=
EXTT11=
EXTT12=
PLAYORDER=
